<?xml version="1.0" encoding="UTF-8" standalone="no"?>
<!-- Created with Inkscape (http://www.inkscape.org/) -->

<svg
   xmlns:dc="http://purl.org/dc/elements/1.1/"
   xmlns:cc="http://creativecommons.org/ns#"
   xmlns:rdf="http://www.w3.org/1999/02/22-rdf-syntax-ns#"
   xmlns:svg="http://www.w3.org/2000/svg"
   xmlns="http://www.w3.org/2000/svg"
   xmlns:sodipodi="http://sodipodi.sourceforge.net/DTD/sodipodi-0.dtd"
   xmlns:inkscape="http://www.inkscape.org/namespaces/inkscape"
   width="36.179005mm"
   height="20.025486mm"
   viewBox="0 0 36.179005 20.025486"
   version="1.1"
   id="svg8"
   inkscape:version="0.92.4 (5da689c313, 2019-01-14)"
   sodipodi:docname="MakersMark-Vector.svg">
  <defs
     id="defs2" />
  <sodipodi:namedview
     id="base"
     pagecolor="#ffffff"
     bordercolor="#666666"
     borderopacity="1.0"
     inkscape:pageopacity="0.0"
     inkscape:pageshadow="2"
     inkscape:zoom="1.4"
     inkscape:cx="59.659049"
     inkscape:cy="-9.2303325"
     inkscape:document-units="mm"
     inkscape:current-layer="layer1"
     showgrid="false"
     inkscape:window-width="1434"
     inkscape:window-height="514"
     inkscape:window-x="2080"
     inkscape:window-y="275"
     inkscape:window-maximized="0"
     fit-margin-top="0"
     fit-margin-left="0"
     fit-margin-right="-0.3"
     fit-margin-bottom="0" />
  <metadata
     id="metadata5">
    <rdf:RDF>
      <cc:Work
         rdf:about="">
        <dc:format>image/svg+xml</dc:format>
        <dc:type
           rdf:resource="http://purl.org/dc/dcmitype/StillImage" />
        <dc:title></dc:title>
      </cc:Work>
    </rdf:RDF>
  </metadata>
  <g
     inkscape:label="Layer 1"
     inkscape:groupmode="layer"
     id="layer1"
     transform="translate(-56.475641,-117.89856)">
    <flowRoot
       xml:space="preserve"
       id="flowRoot20"
       style="font-style:normal;font-weight:normal;font-size:40px;line-height:1.25;font-family:sans-serif;letter-spacing:0px;word-spacing:0px;fill:#000000;fill-opacity:1;stroke:none"
       transform="scale(0.26458333)"><flowRegion
         id="flowRegion22"><rect
           id="rect24"
           width="220.71428"
           height="99.285713"
           x="270.71429"
           y="321.09113" /></flowRegion><flowPara
         id="flowPara26"></flowPara></flowRoot>    <flowRoot
       xml:space="preserve"
       id="flowRoot3747"
       style="font-style:normal;font-weight:normal;font-size:40px;line-height:1.25;font-family:sans-serif;letter-spacing:0px;word-spacing:0px;fill:#000000;fill-opacity:1;stroke:none"
       transform="scale(0.26458333)"><flowRegion
         id="flowRegion3749"><rect
           id="rect3751"
           width="347.14285"
           height="192.14285"
           x="286.42856"
           y="308.94827" /></flowRegion><flowPara
         id="flowPara3753"></flowPara></flowRoot>    <g
       id="g3835"
       transform="translate(-10.690781,-32.072343)"
       inkscape:export-xdpi="95.578224"
       inkscape:export-ydpi="95.578224">
      <g
         id="text12-7"
         style="font-style:normal;font-weight:normal;font-size:10.58333302px;line-height:1.25;font-family:sans-serif;letter-spacing:0px;word-spacing:0px;fill:#000000;fill-opacity:1;stroke:none;stroke-width:0.26458332"
         aria-label="A(n)dy">
        <g
           transform="translate(0,-0.11692388)"
           id="g3822">
          <path
             inkscape:connector-curvature="0"
             d="m 73.023272,162.62947 c 0.402167,-0.0106 0.910167,-0.0317 1.23825,-0.0317 0.41275,0 1.005417,0 1.397,0.0317 v -0.49742 c -0.02117,0 -0.941917,0 -0.941917,-0.13758 0,-0.0106 0.03175,-0.11642 0.04233,-0.127 l 0.529166,-1.28058 h 2.836334 l 0.635,1.54516 h -1.005417 v 0.49742 c 0.402167,-0.0317 1.407583,-0.0317 1.862667,-0.0317 0.423333,0 1.354666,0 1.725083,0.0317 v -0.49742 h -1.026583 l -2.709334,-6.61458 c -0.116416,-0.27517 -0.243416,-0.27517 -0.423333,-0.27517 -0.296333,0 -0.338667,0.0847 -0.41275,0.27517 l -2.624667,6.37117 c -0.0635,0.15875 -0.09525,0.24341 -0.899583,0.24341 h -0.22225 z m 2.4765,-2.54 1.2065,-2.94217 1.2065,2.94217 z"
             style="font-style:normal;font-variant:normal;font-weight:bold;font-stretch:normal;font-family:'CMU Serif';-inkscape-font-specification:'CMU Serif Bold';stroke-width:0.26458332"
             id="path3788" />
          <g
             id="g3812"
             transform="translate(-2.3219307,0.01670696)">
            <path
               inkscape:connector-curvature="0"
               id="path3790"
               style="font-style:italic;font-variant:normal;font-weight:500;font-stretch:normal;font-family:'CMU Serif';-inkscape-font-specification:'CMU Serif Medium Italic';stroke-width:0.26458332"
               d="m 84.0646,162.06523 c 0,0.62442 0.09525,1.29117 0.28575,1.82034 0.264584,0.70908 0.719667,1.32291 0.867834,1.32291 0.0635,0 0.105833,-0.0423 0.105833,-0.10583 0,-0.0212 0,-0.0423 -0.07408,-0.14817 -0.5715,-0.86783 -0.656167,-1.76741 -0.656167,-2.50825 0,-1.43933 0.624417,-5.36575 3.164417,-7.52475 0.148166,-0.14816 0.15875,-0.15875 0.15875,-0.1905 0,-0.0741 -0.04233,-0.10583 -0.105834,-0.10583 -0.116416,0 -1.3335,0.85725 -2.25425,2.36008 -1.164166,1.91559 -1.49225,3.94759 -1.49225,5.08 z" />
            <path
               inkscape:connector-curvature="0"
               id="path3792"
               style="font-style:normal;font-variant:normal;font-weight:bold;font-stretch:normal;font-family:'CMU Serif';-inkscape-font-specification:'CMU Serif Bold';stroke-width:0.26458332"
               d="m 86.250072,162.62947 c 0.296334,-0.0106 0.931333,-0.0317 1.3335,-0.0317 0.41275,0 1.037167,0.0212 1.3335,0.0317 v -0.49742 h -0.73025 v -2.21191 c 0,-1.15359 0.910167,-1.67217 1.576917,-1.67217 0.359833,0 0.582083,0.22225 0.582083,1.02658 v 2.8575 h -0.73025 v 0.49742 c 0.296333,-0.0106 0.931333,-0.0317 1.3335,-0.0317 0.41275,0 1.037167,0.0212 1.3335,0.0317 v -0.49742 h -0.73025 v -2.74108 c 0,-1.11125 -0.5715,-1.524 -1.629833,-1.524 -1.016,0 -1.576917,0.60325 -1.852084,1.143 v -1.143 l -1.820333,0.0847 v 0.49741 c 0.656167,0 0.73025,0 0.73025,0.41275 v 3.27025 h -0.73025 z" />
            <path
               inkscape:connector-curvature="0"
               id="path3794"
               style="font-style:italic;font-variant:normal;font-weight:500;font-stretch:normal;font-family:'CMU Serif';-inkscape-font-specification:'CMU Serif Medium Italic';stroke-width:0.26458332"
               d="m 90.652261,165.43674 c 0,0.0741 0.04233,0.10583 0.105834,0.10583 0.116416,0 1.3335,-0.85725 2.25425,-2.36008 1.164166,-1.91558 1.49225,-3.94758 1.49225,-5.08 0,-0.62442 -0.09525,-1.29117 -0.28575,-1.82033 -0.264584,-0.70909 -0.719667,-1.32292 -0.867834,-1.32292 -0.0635,0 -0.105833,0.0423 -0.105833,0.10583 0,0.0212 0,0.0423 0.07408,0.14817 0.5715,0.86783 0.656167,1.76742 0.656167,2.50825 0,1.43933 -0.624417,5.36575 -3.164417,7.52475 -0.148166,0.14817 -0.15875,0.15875 -0.15875,0.1905 z" />
          </g>
          <g
             id="g3807"
             transform="translate(-6.046973,0.23386084)">
            <path
               inkscape:connector-curvature="0"
               id="path3796"
               style="font-style:italic;font-variant:normal;font-weight:bold;font-stretch:normal;font-family:'CMU Serif';-inkscape-font-specification:'CMU Serif Bold Italic';stroke-width:0.26458332"
               d="m 98.62209,160.97515 c 0,1.36525 1.037166,1.70392 1.69333,1.70392 0.56091,0 0.99483,-0.22225 1.397,-0.55034 0.26458,0.39159 0.68791,0.55034 1.09008,0.55034 0.254,0 0.87842,-0.0529 1.27,-1.48167 0.0212,-0.0635 0.0423,-0.127 0.0423,-0.1905 0,-0.0953 -0.0635,-0.15875 -0.27516,-0.15875 h -0.0635 c -0.127,0 -0.22225,0.0106 -0.27517,0.254 -0.0741,0.28575 -0.28575,1.18533 -0.64558,1.18533 -0.14817,0 -0.20109,-0.127 -0.20109,-0.30691 0,-0.21167 0.0635,-0.48684 0.127,-0.71967 l 1.41817,-5.68325 c 0.0106,-0.0529 0.0212,-0.10583 0.0212,-0.14817 0,-0.16933 -0.127,-0.21166 -0.254,-0.21166 -0.13759,0 -1.37584,0.0741 -1.37584,0.0741 -0.0106,0 -0.3175,-0.0106 -0.3175,0.30692 0,0.27516 0.33867,0.1905 0.71967,0.23283 l -0.56092,2.25425 c -0.29633,-0.24342 -0.5715,-0.34925 -0.9525,-0.34925 -1.71449,0 -2.85749,1.7145 -2.85749,3.2385 z m 1.143,0.56092 c 0,-0.59267 0.43392,-2.25425 0.74084,-2.75167 0.22224,-0.35983 0.58207,-0.65617 0.97365,-0.65617 0.508,0 0.762,0.4445 0.762,0.68792 0,0.0529 -0.0106,0.10583 -0.0318,0.15875 -0.66675,2.71992 -0.62441,2.56117 -0.74083,2.70933 -0.21167,0.26459 -0.64558,0.60325 -1.09007,0.60325 -0.24342,0 -0.61384,-0.127 -0.61384,-0.75141 z" />
            <path
               inkscape:connector-curvature="0"
               id="path3798"
               style="font-style:italic;font-variant:normal;font-weight:bold;font-stretch:normal;font-family:'CMU Serif';-inkscape-font-specification:'CMU Serif Bold Italic';stroke-width:0.26458332"
               d="m 103.93135,159.46505 c 0,0.13759 0.13758,0.17992 0.27516,0.17992 0.10584,0 0.21167,-0.0212 0.254,-0.0529 0.11642,-0.10583 0.127,-0.59266 0.49742,-1.06891 0.1905,-0.23284 0.37042,-0.3175 0.49742,-0.3175 0.13758,0 0.17991,0.0635 0.17991,0.1905 0,0.52916 -0.8255,2.00025 -0.8255,3.01625 0,1.06891 0.83609,1.3335 1.54517,1.3335 0.33867,0 0.59267,-0.0741 0.89958,-0.254 -0.27516,1.21708 -1.00541,1.92616 -1.67216,1.92616 -0.24342,0 -0.40217,-0.0741 -0.56092,-0.17991 v -0.0106 c 0.40217,-0.15875 0.49742,-0.51858 0.49742,-0.6985 0,-0.28575 -0.21167,-0.48683 -0.51859,-0.48683 -0.40216,0 -0.75141,0.33867 -0.75141,0.80433 0,0.58209 0.55033,0.96309 1.32291,0.96309 0.4445,0 0.96309,-0.127 1.4605,-0.43392 1.13242,-0.68792 1.30175,-1.66158 1.37584,-1.95792 l 0.9525,-3.78883 c 0.0212,-0.0847 0.0318,-0.15875 0.0318,-0.254 0,-0.27517 -0.21167,-0.4445 -0.46567,-0.4445 -0.5715,0 -0.66675,0.5715 -0.70908,0.71967 l -0.68792,2.75166 c -0.0741,0.28575 -0.0635,0.32809 -0.27517,0.56092 -0.24341,0.254 -0.55033,0.40217 -0.81491,0.40217 -0.22225,0 -0.56092,-0.0952 -0.56092,-0.75142 0,-0.98425 0.77258,-2.37067 0.77258,-2.84692 0,-0.56091 -0.49741,-0.96308 -1.10066,-0.96308 -1.0795,0 -1.61925,1.41817 -1.61925,1.66158 z" />
          </g>
        </g>
      </g>
      <path
         sodipodi:nodetypes="cccscssscccccsccssscc"
         style="fill:#303030;stroke-width:0.03662256"
         d="m 68.337987,169.90222 c -0.78337,-0.23595 -1.170764,-0.63765 -1.171564,-1.21483 -7.17e-4,-0.55763 0.377583,-0.88428 0.870492,-0.75155 0.301799,0.0813 0.441302,0.23346 0.740642,0.80806 0.34218,0.65684 0.448806,0.75219 0.836251,0.74783 1.111216,-0.0126 1.45137,-1.39018 0.971341,-3.93418 -0.08309,-0.44033 -0.209272,-1.00747 -0.741487,-3.33265 -0.990455,-4.32715 -1.484384,-6.73113 -1.655406,-8.05697 -0.241938,-1.87556 0.5325,-3.60092 1.816058,-4.04598 0.10071,-0.035 0.22278,-0.0824 0.271262,-0.10538 0.177454,-0.0843 1.18383,-0.0451 1.585613,0.062 0.886162,0.23595 1.201194,0.55359 1.200971,1.21092 -2.08e-4,0.55573 -0.124549,0.74661 -0.525519,0.80658 -0.423615,0.0633 -0.672164,-0.14134 -1.028417,-0.84699 -0.325675,-0.64507 -0.501179,-0.77906 -0.959054,-0.73217 -0.662943,0.0679 -1.017244,0.67288 -1.065877,1.81998 -0.04099,0.96693 0.04209,1.46705 0.763577,4.59614 1.407548,6.10455 1.947592,8.90411 1.886255,9.77821 -0.11757,1.67542 -0.787747,2.78996 -1.917309,3.18861 -0.361235,0.12749 -1.457965,0.12892 -1.877829,0.003 z"
         id="path29-5"
         inkscape:connector-curvature="0" />
    </g>
  </g>
</svg>
